<?xml version="1.0" encoding="UTF-8"?>
<!-- Generated by Pixelmator Pro 3.6.5 -->
<svg width="1024" height="1024" viewBox="0 0 1024 1024" xmlns="http://www.w3.org/2000/svg">
    <filter id="filter1" x="0" y="0" width="1024" height="1024" filterUnits="userSpaceOnUse" primitiveUnits="userSpaceOnUse" color-interpolation-filters="sRGB">
        <feGaussianBlur stdDeviation="10"/>
    </filter>
    <path id="ombra" fill="#000000" fill-rule="evenodd" stroke="none" opacity="0.3" filter="url(#filter1)" d="M 100 627.099976 C 100 740.057373 100 796.536072 123.715744 838.883545 C 140.4767 868.812378 165.187607 893.523315 195.116455 910.284302 C 237.463959 934 293.942627 934 406.899994 934 L 617.099976 934 C 730.057312 934 786.536011 934 828.883545 910.284241 C 858.812378 893.523315 883.523315 868.812378 900.284241 838.883545 C 924 796.536011 924 740.057373 924 627.099976 L 924 416.900024 C 924 303.942688 924 247.463989 900.284241 205.116455 C 883.523254 175.187622 858.812378 150.476685 828.883545 133.715759 C 786.536011 110 730.057373 110 617.099976 110 L 406.899994 110 C 293.942627 110 237.463943 110 195.11644 133.715759 C 165.187592 150.476746 140.476685 175.187622 123.715729 205.116455 C 99.999992 247.463989 99.999992 303.942627 99.999992 416.900024 Z"/>
    <linearGradient id="linearGradient1" x1="512.077078" y1="100.022282" x2="512.077078" y2="924.022282" gradientUnits="userSpaceOnUse">
        <stop offset="0" stop-color="#fdfdfd" stop-opacity="1"/>
        <stop offset="1" stop-color="#cfcfcf" stop-opacity="1"/>
    </linearGradient>
    <path id="canvas" fill="url(#linearGradient1)" fill-rule="evenodd" stroke="none" d="M 100 618.75 C 100 731.100098 100 787.275085 123.588242 829.394897 C 140.259079 859.162842 164.837128 883.740906 194.605072 900.411743 C 236.724899 924 292.899933 924 405.25 924 L 618.75 924 C 731.100037 924 787.275085 924 829.394958 900.411743 C 859.162903 883.740906 883.740967 859.162842 900.411804 829.394897 C 924.000061 787.275085 924.000061 731.100098 924.000061 618.75 L 924 405.25 C 924 292.899963 924 236.724915 900.411743 194.605042 C 883.740906 164.837097 859.162842 140.259033 829.394897 123.588196 C 787.275085 99.999939 731.100037 99.999939 618.749939 99.999939 L 405.25 100 C 292.899933 100 236.724899 100 194.605072 123.588257 C 164.837128 140.259094 140.259094 164.837158 123.588242 194.605103 C 100 236.724915 100 292.899963 100 405.250061 Z"/>
    <path id="Background" fill="#1e0d25" fill-rule="evenodd" stroke="none" d="M -31 1061 L 1057 1061 L 1057 -36 L -31 -36 Z"/>
    <g id="Tiles">
        <path id="Rectangle" fill="#81ecda" fill-rule="evenodd" stroke="none" d="M 10 281 C 10 307.509644 31.490332 329 58 329 L 284 329 C 310.509674 329 332 307.509644 332 281 L 332 55 C 332 28.490356 310.509674 7 284 7 L 58 7 C 31.490332 7 10 28.490356 10 55 Z"/>
        <path id="Rectangle-copy" fill="#81ecda" fill-rule="evenodd" stroke="none" d="M 351 281 C 351 307.509644 372.490326 329 399 329 L 625 329 C 651.509644 329 673 307.509644 673 281 L 673 55 C 673 28.490356 651.509644 7 625 7 L 399 7 C 372.490326 7 351 28.490356 351 55 Z"/>
        <path id="Rectangle-copy-2" fill="#81ecda" fill-rule="evenodd" stroke="none" d="M 692 281 C 692 307.509644 713.490356 329 740 329 L 966 329 C 992.509644 329 1014 307.509644 1014 281 L 1014 55 C 1014 28.490356 992.509644 7 966 7 L 740 7 C 713.490356 7 692 28.490356 692 55 Z"/>
        <path id="Rectangle-copy-3" fill="#81ecda" fill-rule="evenodd" stroke="none" d="M 692 622 C 692 648.509644 713.490356 670 740 670 L 966 670 C 992.509644 670 1014 648.509644 1014 622 L 1014 396 C 1014 369.490356 992.509644 348 966 348 L 740 348 C 713.490356 348 692 369.490356 692 396 Z"/>
        <path id="Rectangle-copy-4" fill="#81ecda" fill-rule="evenodd" stroke="none" d="M 350 623 C 350 649.509644 371.490326 671 398 671 L 624 671 C 650.509644 671 672 649.509644 672 623 L 672 397 C 672 370.490356 650.509644 349 624 349 L 398 349 C 371.490326 349 350 370.490356 350 397 Z"/>
        <path id="Rectangle-copy-5" fill="#81ecda" fill-rule="evenodd" stroke="none" d="M 9 622 C 9 648.509644 30.490332 670 57 670 L 283 670 C 309.509674 670 331 648.509644 331 622 L 331 396 C 331 369.490356 309.509674 348 283 348 L 57 348 C 30.490332 348 9 369.490356 9 396 Z"/>
        <path id="Rectangle-copy-6" fill="#81ecda" fill-rule="evenodd" stroke="none" d="M 10 964 C 10 990.509644 31.490332 1012 58 1012 L 284 1012 C 310.509674 1012 332 990.509644 332 964 L 332 738 C 332 711.490356 310.509674 690 284 690 L 58 690 C 31.490332 690 10 711.490356 10 738 Z"/>
        <path id="Rectangle-copy-7" fill="#81ecda" fill-rule="evenodd" stroke="none" d="M 350 964 C 350 990.509644 371.490326 1012 398 1012 L 624 1012 C 650.509644 1012 672 990.509644 672 964 L 672 738 C 672 711.490356 650.509644 690 624 690 L 398 690 C 371.490326 690 350 711.490356 350 738 Z"/>
    </g>
    <filter id="filter2" x="0" y="0" width="1024" height="1024" filterUnits="userSpaceOnUse" primitiveUnits="userSpaceOnUse" color-interpolation-filters="sRGB">
        <feGaussianBlur stdDeviation="3.731377"/>
    </filter>
    <g id="Numbers" opacity="0.816521" filter="url(#filter2)">
        <text id="1" xml:space="preserve" x="458.52386" y="594" font-family="Mint Grotesk" font-size="248.04" font-weight="600" fill="#1f1425" baseline-shift="16">1</text>
        <text id="2" xml:space="preserve" x="765.31002" y="594" font-family="Mint Grotesk" font-size="248.04" font-weight="600" fill="#1f1425" baseline-shift="16">2</text>
        <text id="3" xml:space="preserve" x="79.82962" y="252" font-family="Mint Grotesk" font-size="248.04" font-weight="600" fill="#1f1425" baseline-shift="16">3</text>
        <text id="9" xml:space="preserve" x="77.8453" y="594" font-family="Mint Grotesk" font-size="248.04" font-weight="600" fill="#1f1425" baseline-shift="16">9</text>
        <text id="4" xml:space="preserve" x="761.83746" y="252" font-family="Mint Grotesk" font-size="248.04" font-weight="600" fill="#1f1425" baseline-shift="16">4</text>
        <text id="7" xml:space="preserve" x="432.37916" y="935" font-family="Mint Grotesk" font-size="248.04" font-weight="600" fill="#1f1425" baseline-shift="16">7</text>
        <text id="8" xml:space="preserve" x="422.0855" y="252" font-family="Mint Grotesk" font-size="248.04" font-weight="600" fill="#1f1425" baseline-shift="16">8</text>
        <text id="5" xml:space="preserve" x="82.79826" y="935" font-family="Mint Grotesk" font-size="248.04" font-weight="600" fill="#1f1425" baseline-shift="16">5</text>
    </g>
    <filter id="filter3" x="0" y="0" width="1024" height="1024" filterUnits="userSpaceOnUse" primitiveUnits="userSpaceOnUse" color-interpolation-filters="sRGB">
        <feGaussianBlur stdDeviation="3.731377"/>
    </filter>
    <g id="Numbers-copy-2" opacity="0.616388" filter="url(#filter3)">
        <text id="text1" xml:space="preserve" x="458.52386" y="604" font-family="Mint Grotesk" font-size="248.04" font-weight="600" fill="#f6f6f1" baseline-shift="16">1</text>
        <text id="text2" xml:space="preserve" x="765.31002" y="604" font-family="Mint Grotesk" font-size="248.04" font-weight="600" fill="#f6f6f1" baseline-shift="16">2</text>
        <text id="text3" xml:space="preserve" x="79.82962" y="262" font-family="Mint Grotesk" font-size="248.04" font-weight="600" fill="#f6f6f1" baseline-shift="16">3</text>
        <text id="text4" xml:space="preserve" x="77.8453" y="604" font-family="Mint Grotesk" font-size="248.04" font-weight="600" fill="#f6f6f1" baseline-shift="16">9</text>
        <text id="text5" xml:space="preserve" x="761.83746" y="262" font-family="Mint Grotesk" font-size="248.04" font-weight="600" fill="#f6f6f1" baseline-shift="16">4</text>
        <text id="text6" xml:space="preserve" x="432.37916" y="945" font-family="Mint Grotesk" font-size="248.04" font-weight="600" fill="#f6f6f1" baseline-shift="16">7</text>
        <text id="text7" xml:space="preserve" x="422.0855" y="262" font-family="Mint Grotesk" font-size="248.04" font-weight="600" fill="#f6f6f1" baseline-shift="16">8</text>
        <text id="text8" xml:space="preserve" x="82.79826" y="945" font-family="Mint Grotesk" font-size="248.04" font-weight="600" fill="#f6f6f1" baseline-shift="16">5</text>
    </g>
    <g id="Numbers-copy">
        <text id="text9" xml:space="preserve" x="458.52386" y="598" font-family="Mint Grotesk" font-size="248.04" font-weight="600" fill="#1f1425" baseline-shift="16">1</text>
        <text id="text10" xml:space="preserve" x="765.31002" y="598" font-family="Mint Grotesk" font-size="248.04" font-weight="600" fill="#1f1425" baseline-shift="16">2</text>
        <text id="text11" xml:space="preserve" x="79.82962" y="256" font-family="Mint Grotesk" font-size="248.04" font-weight="600" fill="#1f1425" baseline-shift="16">3</text>
        <text id="text12" xml:space="preserve" x="77.8453" y="598" font-family="Mint Grotesk" font-size="248.04" font-weight="600" fill="#1f1425" baseline-shift="16">9</text>
        <text id="text13" xml:space="preserve" x="761.83746" y="256" font-family="Mint Grotesk" font-size="248.04" font-weight="600" fill="#1f1425" baseline-shift="16">4</text>
        <text id="text14" xml:space="preserve" x="432.37916" y="939" font-family="Mint Grotesk" font-size="248.04" font-weight="600" fill="#1f1425" baseline-shift="16">7</text>
        <text id="text15" xml:space="preserve" x="422.0855" y="256" font-family="Mint Grotesk" font-size="248.04" font-weight="600" fill="#1f1425" baseline-shift="16">8</text>
        <text id="text16" xml:space="preserve" x="82.79826" y="939" font-family="Mint Grotesk" font-size="248.04" font-weight="600" fill="#1f1425" baseline-shift="16">5</text>
    </g>
</svg>
